<svg xmlns="http://www.w3.org/2000/svg" version="1.1" xmlns:xlink="http://www.w3.org/1999/xlink" xmlns:svgjs="http://svgjs.com/svgjs" width="1440" height="560" preserveAspectRatio="none" viewBox="0 0 1440 560">
    <g mask="url(&quot;#SvgjsMask1005&quot;)" fill="none">
        <path d="M1653.37 171.45C1483.79 172.31 1245.63 318.47 990.84 317.05 736.04 315.63 779.13-20.04 659.57-54.7" stroke="rgba(0, 227, 153, 0.36)" stroke-width="2"></path>
        <path d="M1631.01 97.38C1448.69 101.91 1294.41 361.1 950.65 360.58 606.89 360.06 474.7-79.58 270.29-100.63" stroke="rgba(0, 227, 153, 0.36)" stroke-width="2"></path>
        <path d="M1451.67 280.95C1277.66 284.74 1133.26 523.57 798.45 521.75 463.63 519.93 353.85 18.9 145.22-13.85" stroke="rgba(0, 227, 153, 0.36)" stroke-width="2"></path>
        <path d="M1608.02 384.06C1420.9 380.05 1274.5 132.1 905.07 126.46 535.63 120.82 384.68-69.77 202.11-71.65" stroke="rgba(0, 227, 153, 0.36)" stroke-width="2"></path>
        <path d="M1548.36 298.03C1384.3 300.11 1167.42 492.01 920.31 488.43 673.2 484.85 736.6 63.18 606.29-1.51" stroke="rgba(0, 227, 153, 0.36)" stroke-width="2"></path>
    </g>
    <defs>
        <mask id="SvgjsMask1005">
            <rect width="1440" height="560" fill="#ffffff"></rect>
        </mask>
    </defs>
</svg>