<svg xmlns="http://www.w3.org/2000/svg" version="1.1" xmlns:xlink="http://www.w3.org/1999/xlink" xmlns:svgjs="http://svgjs.com/svgjs" width="1440" height="560" preserveAspectRatio="none" viewBox="0 0 1440 560">
    <g mask="url(&quot;#SvgjsMask1022&quot;)" fill="none">
        <rect width="1440" height="560" x="0" y="0" fill="rgba(0, 227, 153, 1)"></rect>
        <path d="M0,490.247C90.516,485.123,139.352,382.906,208.082,323.782C266.102,273.871,329.8,233.68,372.267,170.009C420.67,97.438,479.629,19.149,469.011,-67.434C458.364,-154.253,381.317,-215.265,317.662,-275.255C259.323,-330.235,192.714,-372.22,117.163,-399.022C38.066,-427.082,-51.757,-469.917,-127.157,-433.058C-203.058,-395.954,-193.739,-279.53,-252.147,-218.487C-315.54,-152.234,-439.66,-152.617,-476.035,-68.444C-512.379,15.658,-479.224,118.81,-431.777,197.186C-386.488,271.997,-296.152,299.116,-223.793,348.228C-149.179,398.871,-90.033,495.343,0,490.247" fill="#00b67a"></path>
        <path d="M1440 1033.529C1537.9180000000001 1027.958 1638.121 1048.0439999999999 1727.007 1006.592 1822.62 962.0029999999999 1921.495 894.967 1953.0140000000001 794.2860000000001 1984.094 695.006 1913.121 596.422 1886.934 495.741 1864.062 407.805 1863.401 313.044 1808.9279999999999 240.322 1752.424 164.889 1670.226 110.41899999999998 1579.414 85.19999999999999 1489.334 60.184000000000026 1396.593 81.43299999999999 1305.047 100.392 1205.9 120.92500000000001 1106.828 140.952 1024.644 200.09199999999998 927.382 270.082 795.784 347.464 795.189 467.29 794.576 590.83 959.4300000000001 644.357 1021.909 750.936 1075.161 841.7760000000001 1043.97 981.5219999999999 1131.209 1040.488 1218.272 1099.335 1335.085 1039.498 1440 1033.529" fill="#11ffb2"></path>
    </g>
    <defs>
        <mask id="SvgjsMask1022">
            <rect width="1440" height="560" fill="#ffffff"></rect>
        </mask>
    </defs>
</svg>