<svg xmlns="http://www.w3.org/2000/svg" version="1.1" xmlns:xlink="http://www.w3.org/1999/xlink" xmlns:svgjs="http://svgjs.dev/svgjs" viewBox="0 0 1920 1080"><rect width="1920" height="1080" fill="#8b5cf6"></rect><g transform="matrix(1.1108147002324285,0.29764190186789885,-0.29764190186789885,1.1108147002324285,61.546640069657315,-326.23167024988425)"><path d="M0,-1080C7.227968123721628,-989.1165572985058,51.62230506996463,-765.5619615638205,43.36780874232977,-534.6993437910347C35.11331241469491,-303.8367260182489,-21.53275200363487,74.48320802893787,-49.52697796580918,305.1757066367147C-77.52120392798349,535.8682052444916,-150.24218314214974,636.9640259060318,-124.5975470307161,849.4556478556265C-98.95291091928244,1061.9472698052211,83.57458086434004,1361.701379643554,104.34083870279272,1580.125438334283C125.10709654124541,1798.549497025012,17.390139783798787,2063.3542397223805,0,2160L 1920 2160 L 1920 -1080 Z" fill="url(&quot;#SvgjsLinearGradient1662&quot;)"></path><path d="M213.33333333333331,-1080C228.44100065134498,-1000.4692559626374,283.52363666122693,-785.0276492917147,303.9793372414033,-602.8155357758242C324.43503782157967,-420.6034222599336,362.2654685611704,-167.78160176123993,336.0675368143916,13.27268109534316C309.8696050676128,194.32696395192625,164.12771718125867,297.6001923767848,146.7917467607304,483.51016136367434C129.45577634020214,669.4201303505639,220.58887282725993,931.8267655884553,232.05171429122203,1128.7324950166808C243.51455575518412,1325.6382244449064,218.6885257041511,1493.0666204358079,215.56879554450296,1664.9445379330277C212.44906538485483,1836.8224554302476,213.70591036852827,2077.4907563221714,213.33333333333331,2160L 1920 2160 L 1920 -1080 Z" fill="url(&quot;#SvgjsLinearGradient1663&quot;)"></path><path d="M426.66666666666663,-1080C422.35291099517747,-976.8041952409174,387.1347721231809,-649.9113208261994,400.7841326377318,-460.82517144550445C414.43349315228267,-271.73902206480955,503.45263197810544,-91.95313258375018,508.562829753972,54.51689628416955C513.6730275298385,200.98692515208927,458.5122839702172,260.97248809731195,431.44531929293095,417.99500176201394C404.3783546156447,575.0175154267159,360.7247405564477,795.9685152529524,346.1610416902544,996.6519782723816C331.5973428240611,1197.3354412918106,330.64552193303575,1428.2044429239859,344.0631260957711,1622.095779878589C357.48073025850647,1815.987116833192,412.8994099048507,2070.3492966464314,426.66666666666663,2160L 1920 2160 L 1920 -1080 Z" fill="url(&quot;#SvgjsLinearGradient1664&quot;)"></path><path d="M640,-1080C660.2135040655903,-996.0669431329402,749.9586236232885,-726.9631910132075,761.2810243935417,-576.4016587976414C772.6034251637948,-425.8401265820753,711.7222938379523,-315.92713188119046,707.934404621519,-176.63080670660338C704.1465154050857,-37.33448153201627,744.7481439149868,114.78730451493999,738.5536890949415,259.3762922498813C732.3592342748963,403.96527998482264,674.7827198535518,535.3283483685717,670.7676757012473,690.9031197030446C666.7526315489428,846.4778910375175,732.9787414466243,1013.7735415968872,714.4634241811141,1192.8249202567188C695.9481069156038,1371.8762989165505,572.0863428050384,1604.0155450381542,559.675772108186,1765.2113916620344C547.2652014113337,1926.4072382859147,626.6126286846977,2094.201898610339,640,2160L 1920 2160 L 1920 -1080 Z" fill="url(&quot;#SvgjsLinearGradient1665&quot;)"></path><path d="M853.3333333333333,-1080C857.8044697715353,-1002.6135883543875,885.0375858764619,-784.7176474048402,880.1601519625458,-615.6815301263247C875.2827180486297,-446.6454128478091,844.7988555365654,-236.0685344932758,824.0687298498369,-65.78329632890626C803.3386041631085,104.50194183546327,741.4132183995473,272.0919639146804,755.7793978421751,406.0298988598926C770.1455772848028,539.9678338051049,899.8705067922228,595.9237244253006,910.2658065056036,737.8443133423671C920.6611062189843,879.7649022594335,834.4421795447468,1098.7327820885898,818.1511961224592,1257.5534323622912C801.8602127001716,1416.3740826359926,806.6562164367325,1540.360453711624,812.5199059718782,1690.7682149845755C818.3835955070239,1841.175976257527,846.5310954397575,2081.794702497429,853.3333333333333,2160L 1920 2160 L 1920 -1080 Z" fill="url(&quot;#SvgjsLinearGradient1666&quot;)"></path><path d="M1066.6666666666667,-1080C1055.7186146080621,-936.3078127513381,997.1713011315909,-470.3174687710539,1000.9783543150386,-217.8468765080289C1004.7854074984863,34.62371575499603,1085.0857045872538,168.1715893675177,1089.5089857673527,434.8235535781497C1093.9322669474516,701.4755177887816,1031.3250945790794,1094.535501018788,1027.5180413956318,1382.064908755763C1023.7109882121841,1669.5943164927382,1060.141895788161,2030.344151459294,1066.6666666666667,2160L 1920 2160 L 1920 -1080 Z" fill="url(&quot;#SvgjsLinearGradient1667&quot;)"></path><path d="M1280,-1080C1270.2093882820982,-975.7845539035634,1203.1641526089554,-657.8815722518435,1221.2563296925891,-454.70732342138007C1239.3485067762228,-251.53307459091658,1380.3630749687247,-75.80910728318602,1388.5530625018027,139.0454929827809C1396.7430500348808,353.9000932487478,1269.7754554338019,618.0150406479213,1270.396254891057,834.4202781744214C1271.017054348312,1050.8255157009214,1390.6772350605095,1216.5469645041849,1392.2778592453333,1437.4769181417814C1393.878483430157,1658.406871779378,1298.7129765408888,2039.5794863569636,1280,2160L 1920 2160 L 1920 -1080 Z" fill="url(&quot;#SvgjsLinearGradient1668&quot;)"></path><path d="M1493.3333333333333,-1080C1512.6222881623437,-976.2900580576941,1588.2756404712989,-644.0007423520474,1609.067062307396,-457.7403483461641C1629.8584841434933,-271.47995434028087,1654.5382373050522,-113.56134064651394,1618.0818643499172,37.56236403529937C1581.625491394782,188.68606871711268,1400.0120361799118,264.2032265684649,1390.3288245765857,449.0018797447157C1380.6456129732596,633.8005329209666,1552.6897480020323,963.0866635313395,1559.9825947299603,1146.3542830928043C1567.2754414578883,1329.6219026542692,1445.1941151769245,1379.666644295639,1434.0859049441533,1548.6075971135049C1422.9776947113821,1717.5485499313709,1483.4587619351366,2058.1012661855843,1493.3333333333333,2160L 1920 2160 L 1920 -1080 Z" fill="url(&quot;#SvgjsLinearGradient1669&quot;)"></path><path d="M1706.6666666666665,-1080C1704.7841627984092,-989.629799921428,1686.7182975541587,-701.8656804772342,1695.371643457122,-537.7787995285684C1704.0249893600853,-373.69191857990256,1765.5053080702817,-216.63535212868192,1758.5867420844472,-95.4787143080053C1751.6681760986128,25.677923512671327,1647.6775409749039,31.991741026706563,1653.8602475421155,189.16102739549137C1660.0429541093272,346.3303137642762,1789.0175195479796,662.6557211666468,1795.6829814877178,847.5370039047036C1802.348443427456,1032.4182866427604,1706.736754240216,1151.2833871292987,1693.8530191805453,1298.448723823832C1680.9692841208746,1445.6140605183655,1716.2449632153405,1586.937144709209,1718.380571129694,1730.5290240719037C1720.5161790440477,1874.1209034345984,1708.618984077171,2088.421504011984,1706.6666666666665,2160L 1920 2160 L 1920 -1080 Z" fill="url(&quot;#SvgjsLinearGradient1670&quot;)"></path></g><defs><linearGradient x1="0.1" y1="0" x2="0" y2="1" id="SvgjsLinearGradient1662"><stop stop-color="#8b5cf6" offset="0"></stop><stop stop-color="#715cf6" offset="0"></stop></linearGradient><linearGradient x1="0.1" y1="0" x2="0" y2="1" id="SvgjsLinearGradient1663"><stop stop-color="#7842f5" offset="0"></stop><stop stop-color="#5a42f5" offset="0.1111111111111111"></stop></linearGradient><linearGradient x1="0.1" y1="0" x2="0" y2="1" id="SvgjsLinearGradient1664"><stop stop-color="#6628f3" offset="0"></stop><stop stop-color="#4428f3" offset="0.2222222222222222"></stop></linearGradient><linearGradient x1="0.1" y1="0" x2="0" y2="1" id="SvgjsLinearGradient1665"><stop stop-color="#530ef2" offset="0"></stop><stop stop-color="#2d0ef2" offset="0.3333333333333333"></stop></linearGradient><linearGradient x1="0.1" y1="0" x2="0" y2="1" id="SvgjsLinearGradient1666"><stop stop-color="#4a0cd8" offset="0"></stop><stop stop-color="#280cd8" offset="0.4444444444444444"></stop></linearGradient><linearGradient x1="0.1" y1="0" x2="0" y2="1" id="SvgjsLinearGradient1667"><stop stop-color="#410bbe" offset="0"></stop><stop stop-color="#230bbe" offset="0.5555555555555556"></stop></linearGradient><linearGradient x1="0.1" y1="0" x2="0" y2="1" id="SvgjsLinearGradient1668"><stop stop-color="#3809a4" offset="0"></stop><stop stop-color="#1e09a4" offset="0.6666666666666666"></stop></linearGradient><linearGradient x1="0.1" y1="0" x2="0" y2="1" id="SvgjsLinearGradient1669"><stop stop-color="#2f088a" offset="0"></stop><stop stop-color="#19088a" offset="0.7777777777777778"></stop></linearGradient><linearGradient x1="0.1" y1="0" x2="0" y2="1" id="SvgjsLinearGradient1670"><stop stop-color="#260670" offset="0"></stop><stop stop-color="#140670" offset="0.8888888888888888"></stop></linearGradient></defs></svg>