<svg xmlns="http://www.w3.org/2000/svg" version="1.1" xmlns:xlink="http://www.w3.org/1999/xlink" xmlns:svgjs="http://svgjs.dev/svgjs" viewBox="0 0 1920 1080"><rect width="1920" height="1080" fill="#000000"></rect><g transform="matrix(0.8131727983645296,0.8131727983645295,-0.8131727983645295,0.8131727983645296,612.9123080202569,-655.5803321272533)"><path d="M0,-1080C18.16218169928796,-985.4188409078666,113.52626669471034,-672.7650441562165,108.97309019572776,-512.5130454471998C104.41991369674518,-352.26104673818315,-24.73307301833276,-300.72084139405956,-27.319058993895453,-118.48800774589995C-29.905044969458146,63.74482590225969,98.49796552008864,394.6644496608237,93.4571743423516,580.8839564417581C88.41638316461457,767.1034632226924,-43.30853794343591,819.6576739025874,-57.56380606031763,998.8290329397064C-71.81907417719935,1178.0003919768255,-1.6684020356583371,1462.3836161544236,7.925565641061269,1655.9121106644725C17.519533317780876,1849.4406051745214,1.3209276068435447,2075.9853517774122,0,2160L 1920 2160 L 1920 -1080 Z" fill="url(&quot;#SvgjsLinearGradient1381&quot;)"></path><path d="M174.54545454545456,-1080C160.71596428161513,-938.1320009842793,106.57523378804295,-518.8298754580591,91.56851296241797,-228.7920059056762C76.56179213679299,61.24586364670665,72.12194534559232,384.304891089018,84.5051295917047,660.2272173142971C96.88831383781708,936.1495435395764,150.8608976134673,1176.7798209983816,165.86761843909227,1426.741951445999C180.87433926471724,1676.7040818936161,173.09914852772752,2037.790325241,174.54545454545456,2160L 1920 2160 L 1920 -1080 Z" fill="url(&quot;#SvgjsLinearGradient1382&quot;)"></path><path d="M349.0909090909091,-1080C332.0564355063195,-942.0716524481227,266.3642641533537,-541.7552545124208,246.8840675833713,-252.4299146887363C227.40387101338885,36.89542513494831,213.59289197279773,403.83057996358923,232.2097296710145,655.9520389421077C250.82656736923124,908.0734979206262,339.1048972026895,1009.6241790060591,358.5850937726719,1260.2988391823744C378.0652903426543,1510.9734993586899,350.67327320453626,2010.0498065303957,349.0909090909091,2160L 1920 2160 L 1920 -1080 Z" fill="url(&quot;#SvgjsLinearGradient1383&quot;)"></path><path d="M523.6363636363636,-1080C544.5975668697133,-972.3405221712842,637.097990859185,-600.4288093807786,649.4035830364621,-434.0431330277048C661.7091752137393,-267.657456674631,628.8753203137119,-261.42750841024616,597.4699167000265,-81.6859418815572C566.0645130863411,98.05562464713176,481.38889596671754,470.3790514819475,460.9711613543494,644.4062661444291C440.5534267419813,818.4334808069107,446.40592230197507,802.7114718187804,474.9635090258179,962.4773460933321C503.5210957496608,1122.2432203678839,624.2045392623155,1403.414402807295,632.3166816974065,1603.0015117917396C640.4288241324974,1802.5886207761844,541.7497499798708,2067.166918631957,523.6363636363636,2160L 1920 2160 L 1920 -1080 Z" fill="url(&quot;#SvgjsLinearGradient1384&quot;)"></path><path d="M698.1818181818182,-1080C680.942258771412,-1013.0489686814992,606.7161241933251,-841.2564917502327,594.7444617193806,-678.2938120889951C582.7727992454362,-515.3311324277574,599.2508072071889,-264.76689936519864,626.3518433381519,-102.22392203257397C653.4528794691148,60.31905530005071,728.5575582551188,142.89325600974874,757.3506785051579,296.964051906753C786.143798755197,451.0348478037573,826.0654644616238,668.777081170168,799.1105648383865,822.2008533494518C772.1556652151492,975.6246255287356,594.8007319941563,1055.3103248428592,595.6212807657336,1217.5066849824557C596.4418295373108,1379.7030451220521,786.9404345651694,1638.2967950174402,804.0338574678502,1795.3790141870309C821.127280370531,1952.4612333566215,715.8238247294903,2099.2298356978386,698.1818181818182,2160L 1920 2160 L 1920 -1080 Z" fill="url(&quot;#SvgjsLinearGradient1385&quot;)"></path><path d="M872.7272727272727,-1080C861.4166044601478,-1020.9518609985741,807.6357946694297,-847.3386178452135,804.863263124523,-725.711165991445C802.0907315796162,-604.0837141376765,837.6807533960434,-474.8074478618799,856.0920834578324,-350.23528887738905C874.5034135196213,-225.6631298928982,917.0066959816022,-146.44537496699863,915.3312434952569,21.721787915500215C913.6557910089116,189.88895079799906,837.7438139434798,483.6825530820589,846.0393685397606,658.767688417604C854.3349231360414,833.852823753149,958.681725655645,950.5931094087507,965.1045710729418,1072.2325999287702C971.5274164902386,1193.8720904487898,888.5790675976931,1256.6388838211137,884.5764410435413,1388.604631537721C880.5738144893895,1520.5703792543281,943.063673134076,1735.4611914847005,941.0888117480313,1864.0270862284137C939.1139503619866,1992.592980972127,884.1208625640659,2110.671181038069,872.7272727272727,2160L 1920 2160 L 1920 -1080 Z" fill="url(&quot;#SvgjsLinearGradient1386&quot;)"></path><path d="M1047.2727272727273,-1080C1051.203092671792,-989.0196643793436,1085.7980939743316,-693.015580208144,1070.8549196671156,-534.1179862760617C1055.9117453598997,-375.2203923439795,981.3179334166269,-274.54017690945426,957.6136814294323,-126.61443640750622C933.9094294422376,21.311304094441823,921.0370942233959,200.89158210951803,928.6294077439475,353.4364567356265C936.221721264499,505.981331361735,988.67951562995,638.3315088203186,1003.1675625527417,788.6548113491447C1017.6556094755335,938.9781138779707,1026.2907116578247,1084.7497320816758,1015.5576892806982,1255.376271908583C1004.8246669035718,1426.0028117354902,933.4835886246454,1661.6434289620186,938.7694282899836,1812.414050310588C944.0552679553217,1963.1846716591574,1029.1888441089366,2102.069008385098,1047.2727272727273,2160L 1920 2160 L 1920 -1080 Z" fill="url(&quot;#SvgjsLinearGradient1387&quot;)"></path><path d="M1221.8181818181818,-1080C1227.8904443152271,-1003.7631984760776,1245.264710143238,-800.8704230692631,1258.251756800454,-622.5791908564654C1271.2388034576697,-444.2879586436677,1315.9805201813383,-207.95919320252855,1299.7404617614773,-10.252606723214058C1283.5004033416162,187.45397975610044,1194.40124724383,379.19560923971994,1160.8114062812879,563.6603280194215C1127.2215653187457,748.1250467991231,1075.28888767134,901.3438365910989,1098.2014159862238,1096.5357059549951C1121.1139443011075,1291.7275753188912,1277.6837818652646,1557.5674951952979,1298.286576170591,1734.8115442027986C1318.8893704759173,1912.0555932102993,1234.56291421025,2089.135257367133,1221.8181818181818,2160L 1920 2160 L 1920 -1080 Z" fill="url(&quot;#SvgjsLinearGradient1388&quot;)"></path><path d="M1396.3636363636365,-1080C1407.5462502735422,-981.4428520525587,1446.303983390805,-697.1027755108846,1463.4593198230716,-488.6571123153523C1480.6146562553383,-280.21144911982003,1500.4520795316412,-62.578164726402434,1499.2956549572364,170.6739791731938C1498.1392303828316,403.92612307279,1490.1768714691234,666.0569364231732,1456.520772376642,910.855751082225C1422.8646732841607,1155.6545657412769,1307.3852497378496,1431.2761589745423,1297.3590604023486,1639.4668671275049C1287.3328710668477,1847.6575752804674,1379.8628737034219,2073.244477854584,1396.3636363636365,2160L 1920 2160 L 1920 -1080 Z" fill="url(&quot;#SvgjsLinearGradient1389&quot;)"></path><path d="M1570.909090909091,-1080C1568.751416922993,-984.2589059063066,1571.2741194071443,-669.6142473534017,1557.963046992504,-505.5534354378395C1544.6519745778635,-341.4926235222773,1490.7224356715406,-229.1929302426565,1491.0426564212482,-95.6351285066271C1491.362877170956,37.92267322940231,1531.3514573318243,149.77931425857122,1559.8843714907498,295.793374978337C1588.4172856496753,441.8074356981028,1659.5130405149155,627.7305653054129,1662.2401413748016,780.4492358119676C1664.9672422346878,933.1679063185222,1582.7257034272432,1050.0367945115786,1576.246976650067,1212.1053980176646C1569.7682498728907,1374.1740015237506,1624.2574283352396,1594.8784231847612,1623.3677807117438,1752.8608568484838C1622.478133088248,1910.8432905122063,1579.6522058761998,2092.143476141414,1570.909090909091,2160L 1920 2160 L 1920 -1080 Z" fill="url(&quot;#SvgjsLinearGradient1390&quot;)"></path><path d="M1745.4545454545455,-1080C1752.3032444618168,-981.5816968579646,1793.428154683747,-686.3171267061813,1786.5467394981738,-489.4901811477877C1779.6653243126007,-292.66323558939416,1710.193012270481,-126.18284397137327,1704.1660543411062,100.9616733503612C1698.1390964117315,328.10619067209564,1758.5733136918327,619.3088113449822,1750.3849919219256,873.376922782619C1742.1966701520184,1127.4450342202558,1655.85786479956,1410.9331624399515,1655.0361237216634,1625.3703419761816C1654.2143826437668,1839.8075215124118,1730.3848084990652,2070.8950569960302,1745.4545454545455,2160L 1920 2160 L 1920 -1080 Z" fill="url(&quot;#SvgjsLinearGradient1391&quot;)"></path></g><defs><linearGradient x1="0.1" y1="0" x2="0" y2="1" id="SvgjsLinearGradient1381"><stop stop-color="#000000" offset="0"></stop><stop stop-color="#000000" offset="0"></stop></linearGradient><linearGradient x1="0.1" y1="0" x2="0" y2="1" id="SvgjsLinearGradient1382"><stop stop-color="#171717" offset="0"></stop><stop stop-color="#171717" offset="0.09090909090909091"></stop></linearGradient><linearGradient x1="0.1" y1="0" x2="0" y2="1" id="SvgjsLinearGradient1383"><stop stop-color="#2e2e2e" offset="0"></stop><stop stop-color="#2e2e2e" offset="0.18181818181818182"></stop></linearGradient><linearGradient x1="0.1" y1="0" x2="0" y2="1" id="SvgjsLinearGradient1384"><stop stop-color="#464646" offset="0"></stop><stop stop-color="#464646" offset="0.2727272727272727"></stop></linearGradient><linearGradient x1="0.1" y1="0" x2="0" y2="1" id="SvgjsLinearGradient1385"><stop stop-color="#5d5d5d" offset="0"></stop><stop stop-color="#5d5d5d" offset="0.36363636363636365"></stop></linearGradient><linearGradient x1="0.1" y1="0" x2="0" y2="1" id="SvgjsLinearGradient1386"><stop stop-color="#747474" offset="0"></stop><stop stop-color="#747474" offset="0.45454545454545453"></stop></linearGradient><linearGradient x1="0.1" y1="0" x2="0" y2="1" id="SvgjsLinearGradient1387"><stop stop-color="#8b8b8b" offset="0"></stop><stop stop-color="#8b8b8b" offset="0.5454545454545454"></stop></linearGradient><linearGradient x1="0.1" y1="0" x2="0" y2="1" id="SvgjsLinearGradient1388"><stop stop-color="#a2a2a2" offset="0"></stop><stop stop-color="#a2a2a2" offset="0.6363636363636364"></stop></linearGradient><linearGradient x1="0.1" y1="0" x2="0" y2="1" id="SvgjsLinearGradient1389"><stop stop-color="#b9b9b9" offset="0"></stop><stop stop-color="#b9b9b9" offset="0.7272727272727273"></stop></linearGradient><linearGradient x1="0.1" y1="0" x2="0" y2="1" id="SvgjsLinearGradient1390"><stop stop-color="#d1d1d1" offset="0"></stop><stop stop-color="#d1d1d1" offset="0.8181818181818182"></stop></linearGradient><linearGradient x1="0.1" y1="0" x2="0" y2="1" id="SvgjsLinearGradient1391"><stop stop-color="#e8e8e8" offset="0"></stop><stop stop-color="#e8e8e8" offset="0.9090909090909091"></stop></linearGradient></defs></svg>