<svg xmlns="http://www.w3.org/2000/svg" version="1.1" xmlns:xlink="http://www.w3.org/1999/xlink" xmlns:svgjs="http://svgjs.dev/svgjs" viewBox="0 0 1920 1080"><rect width="1920" height="1080" fill="#22c55e"></rect><g transform="matrix(0.8131727983645296,0.8131727983645295,-0.8131727983645295,0.8131727983645296,607.0728326328776,-630.1637841076501)"><path d="M0,-1080C14.899498649322746,-1015.7649179287455,101.42865459546,-866.4368567983107,89.39699189593648,-694.5895075724732C77.36532919641296,-522.7421583466356,-49.40373110621617,-217.45788030442216,-72.18997619714116,-48.91590464497443C-94.97622128806616,119.6260710144733,-39.34213093362366,160.53705507032012,-47.32047864961345,316.6623463842131C-55.29882636560324,472.7876376981061,-135.2758257867177,725.3974154020555,-120.0600624930799,887.8358432383834C-104.8442991994421,1050.2742710747114,14.986756850067206,1174.9454385210872,43.974101112213305,1291.2929134021808C72.9614453743594,1407.6403882832744,61.193019931832254,1441.1361780919756,53.8640030797967,1585.9206925249455C46.53498622776115,1730.7052069579154,8.977333846632783,2064.320115420824,0,2160L 1920 2160 L 1920 -1080 Z" fill="url(&quot;#SvgjsLinearGradient1149&quot;)"></path><path d="M213.33333333333331,-1080C231.11619114147373,-982.6758128404686,308.79947478909315,-667.2102427183202,320.03048018217584,-496.0548770428116C331.2614855752585,-324.8995113673031,287.11547777155545,-211.26709013485382,280.71936569182947,-53.06780594694902C274.3232536121035,105.13147824095577,280.11221924439974,278.6573499788471,281.6538077038198,453.1408280846171C283.1953961632398,627.6243061903872,296.0864492642262,819.4653358556935,289.9688964483499,993.8330626876711C283.8513436324736,1168.2007895196489,257.7210846610647,1304.9860328577615,244.94849080856193,1499.3471890764831C232.17589695605918,1693.7083452952047,218.60252624587142,2049.891198179414,213.33333333333331,2160L 1920 2160 L 1920 -1080 Z" fill="url(&quot;#SvgjsLinearGradient1150&quot;)"></path><path d="M426.66666666666663,-1080C417.3545389771841,-1015.6512374907048,375.4928339558601,-857.4109427029522,370.7939005297714,-693.9074249442288C366.09496710368273,-530.4039071855053,371.1364215074484,-256.9742911051254,398.47306611013465,-98.97889344765917C425.8097107128209,59.01650420980707,510.63242139314855,108.8901560673836,534.8137681458887,254.0649610005687C558.9951148986289,399.2397659337538,579.06999078956,591.5618790695502,543.5611466265757,772.0699361514514C508.05230246359133,952.5779932333527,338.78257828546424,1183.775277832604,321.7607031679825,1337.1133034919762C304.7388280505008,1490.4513291513485,423.94556867190477,1554.9503073563483,441.42989592168544,1692.0980901076855C458.9142231714661,1829.2458728590227,429.1272048758364,2082.016348351281,426.66666666666663,2160L 1920 2160 L 1920 -1080 Z" fill="url(&quot;#SvgjsLinearGradient1151&quot;)"></path><path d="M640,-1080C651.278167975139,-1011.3313919077694,690.4565691693942,-839.70831025032,707.6690078508339,-667.9883514466169C724.8814465322735,-496.2683926429138,767.9020252880568,-230.26092388511873,743.2746320886379,-49.680247177781325C718.6472388892189,130.90042952955608,581.9423878786155,206.58660058335596,559.9046486543202,415.49570879740764C537.866909430025,624.4048170114593,584.7285515335994,985.242096828987,611.0481967428661,1203.7744021065287C637.3678419521328,1422.3067073840703,712.9972193670648,1567.3186074804125,717.8225199099204,1726.6895404626578C722.647820452776,1886.060473444903,652.9704199849867,2087.7815900771097,640,2160L 1920 2160 L 1920 -1080 Z" fill="url(&quot;#SvgjsLinearGradient1152&quot;)"></path><path d="M853.3333333333333,-1080C862.9780652596328,-1018.0055836699166,919.0662278757042,-875.7435003908773,911.2017248911302,-708.0335020195C903.3372219065562,-540.3235036481227,831.363065602193,-251.21331006472602,806.1463154258895,-73.74000977173591C780.929565249586,103.73329052125419,744.52979209379,206.17246122023622,759.9012238333091,356.8062997384406C775.2726555728283,507.440138256645,884.8699683454203,683.8539140240742,898.3749058630044,830.0630213374905C911.8798433805886,976.2721286509067,869.498771881996,1104.9295734501527,840.9308489388143,1234.0609436189382C812.3629259956325,1363.1923137877236,724.9002874714942,1450.528066286693,726.967368203914,1604.8512423502034C729.0344489363339,1759.1744184137137,832.2723391450967,2067.4752070583672,853.3333333333333,2160L 1920 2160 L 1920 -1080 Z" fill="url(&quot;#SvgjsLinearGradient1153&quot;)"></path><path d="M1066.6666666666667,-1080C1061.623575592166,-954.0226402476081,1050.83673127863,-557.4754317713505,1036.4081202196617,-324.13584148564854C1021.9795091606934,-90.79625119994657,982.2700255648747,116.82371830463714,980.0950003128568,320.0375417142117C977.9199750608389,523.2513651237863,994.397740868483,689.574310918058,1023.3579687075545,895.147098971799C1052.318196546626,1100.71988702554,1146.638251020767,1342.6654531986244,1153.8563673472856,1553.4742700366578C1161.0744836738043,1764.2830868746912,1081.19828344677,2058.912378339443,1066.6666666666667,2160L 1920 2160 L 1920 -1080 Z" fill="url(&quot;#SvgjsLinearGradient1154&quot;)"></path><path d="M1280,-1080C1298.4648909457683,-947.7576114218899,1395.7138711778384,-542.6353552738886,1390.7893456746094,-286.54566853133963C1385.8648201713804,-30.45598178879061,1287.8240832846814,194.4514323062117,1250.4528469806257,456.5381204552942C1213.08161067657,718.6248086043767,1161.6374023470464,1002.0641471057043,1166.5619278502754,1285.9744603631552C1171.4864533535044,1569.8847736206062,1261.0936546417126,2014.3290767271926,1280,2160L 1920 2160 L 1920 -1080 Z" fill="url(&quot;#SvgjsLinearGradient1155&quot;)"></path><path d="M1493.3333333333333,-1080C1477.310418539171,-1021.6748273884571,1409.301556672217,-887.0860145707286,1397.1958445683597,-730.0489643307424C1385.0901324645024,-573.0119140907561,1383.5028907737474,-329.6608653502747,1420.6990607101902,-137.7776985600829C1457.895230646633,54.1054682301089,1627.0163738819235,275.7871320600052,1620.3728641870164,421.25003641040837C1613.7293544921092,566.7129407608115,1401.5853602712582,580.5706847203221,1380.8380025407478,734.9997275423361C1360.0906448102373,889.4287703643502,1484.0190220293337,1194.5933514871958,1495.8887178039545,1347.8242933424924C1507.7584135785753,1501.055235197789,1452.4820746002426,1519.0227608978644,1452.0561771884725,1654.3853786741156C1451.6302797767023,1789.7479964503668,1486.4538073091899,2075.730896445686,1493.3333333333333,2160L 1920 2160 L 1920 -1080 Z" fill="url(&quot;#SvgjsLinearGradient1156&quot;)"></path><path d="M1706.6666666666665,-1080C1685.777854646952,-925.7481185377612,1567.830436975472,-429.1144625883609,1581.3337945483786,-154.4887112265675C1594.8371521212853,120.1370401352259,1750.1265590307696,331.09828655031447,1787.6868121041064,567.7545081707605C1825.2470651774431,804.4107297912064,1820.198670561306,1000.074369857902,1806.6953129883993,1265.4486184961086C1793.1919554154927,1530.8228671343152,1723.3381077202887,2010.9081030826846,1706.6666666666665,2160L 1920 2160 L 1920 -1080 Z" fill="url(&quot;#SvgjsLinearGradient1157&quot;)"></path></g><defs><linearGradient x1="0.1" y1="0" x2="0" y2="1" id="SvgjsLinearGradient1149"><stop stop-color="#22c55e" offset="0"></stop><stop stop-color="#22c543" offset="0"></stop></linearGradient><linearGradient x1="0.1" y1="0" x2="0" y2="1" id="SvgjsLinearGradient1150"><stop stop-color="#1eab52" offset="0"></stop><stop stop-color="#1eab3b" offset="0.1111111111111111"></stop></linearGradient><linearGradient x1="0.1" y1="0" x2="0" y2="1" id="SvgjsLinearGradient1151"><stop stop-color="#199145" offset="0"></stop><stop stop-color="#199131" offset="0.2222222222222222"></stop></linearGradient><linearGradient x1="0.1" y1="0" x2="0" y2="1" id="SvgjsLinearGradient1152"><stop stop-color="#157739" offset="0"></stop><stop stop-color="#157729" offset="0.3333333333333333"></stop></linearGradient><linearGradient x1="0.1" y1="0" x2="0" y2="1" id="SvgjsLinearGradient1153"><stop stop-color="#105d2d" offset="0"></stop><stop stop-color="#105d20" offset="0.4444444444444444"></stop></linearGradient><linearGradient x1="0.1" y1="0" x2="0" y2="1" id="SvgjsLinearGradient1154"><stop stop-color="#0c4420" offset="0"></stop><stop stop-color="#0c4417" offset="0.5555555555555556"></stop></linearGradient><linearGradient x1="0.1" y1="0" x2="0" y2="1" id="SvgjsLinearGradient1155"><stop stop-color="#072a14" offset="0"></stop><stop stop-color="#072a0e" offset="0.6666666666666666"></stop></linearGradient><linearGradient x1="0.1" y1="0" x2="0" y2="1" id="SvgjsLinearGradient1156"><stop stop-color="#031008" offset="0"></stop><stop stop-color="#031006" offset="0.7777777777777778"></stop></linearGradient><linearGradient x1="0.1" y1="0" x2="0" y2="1" id="SvgjsLinearGradient1157"><stop stop-color="#000000" offset="0"></stop><stop stop-color="#000000" offset="0.8888888888888888"></stop></linearGradient></defs></svg>